<?xml version="1.0" encoding="utf-8"?>
<!-- Generator: Adobe Illustrator 16.0.0, SVG Export Plug-In . SVG Version: 6.00 Build 0)  -->
<!DOCTYPE svg PUBLIC "-//W3C//DTD SVG 1.1//EN" "http://www.w3.org/Graphics/SVG/1.1/DTD/svg11.dtd">
<svg version="1.1" id="Layer_1" xmlns="http://www.w3.org/2000/svg" xmlns:xlink="http://www.w3.org/1999/xlink" x="0px" y="0px"
	 width="841.89px" height="595.28px" viewBox="0 0 841.89 595.28" enable-background="new 0 0 841.89 595.28" xml:space="preserve">
<g>
	<path d="M366.2,187.2c-43.64,0-79.02,35.38-79.02,79.02s35.38,79.02,79.02,79.02c43.64,0,79.02-35.38,79.02-79.02
		S409.84,187.2,366.2,187.2z M366.71,313.07c-25.87,0-46.85-20.98-46.85-46.85c0-25.88,20.98-46.86,46.85-46.86
		c25.88,0,46.86,20.98,46.86,46.86C413.57,292.09,392.59,313.07,366.71,313.07z"/>
	
		<rect x="377.239" y="264.141" transform="matrix(0.8216 -0.5701 0.5701 0.8216 -105.2377 279.4308)" fill="#FFDE17" stroke="#000000" stroke-width="3" stroke-miterlimit="10" width="33.143" height="87.413"/>
</g>
</svg>
